<svg width="25" height="25" viewBox="0 0 25 25" fill="none" xmlns="http://www.w3.org/2000/svg">
<path d="M18.1006 0H6.89891C3.09485 0 0 3.095 0 6.89906V18.1008C0 21.905 3.09485 24.9999 6.89891 24.9999H18.1006C21.905 24.9999 24.9999 21.9049 24.9999 18.1008V6.89906C25 3.095 21.905 0 18.1006 0ZM22.7819 18.1008C22.7819 20.6819 20.6819 22.7817 18.1008 22.7817H6.89891C4.31792 22.7819 2.21811 20.6819 2.21811 18.1008V6.89906C2.21811 4.31806 4.31792 2.21811 6.89891 2.21811H18.1006C20.6818 2.21811 22.7817 4.31806 22.7817 6.89906V18.1008H22.7819Z" fill="#171515" fill-opacity="0.76"/>
<path d="M12.4999 6.05841C8.94786 6.05841 6.05811 8.94816 6.05811 12.5002C6.05811 16.0522 8.94786 18.9418 12.4999 18.9418C16.052 18.9418 18.9418 16.0522 18.9418 12.5002C18.9418 8.94816 16.052 6.05841 12.4999 6.05841ZM12.4999 16.7235C10.1711 16.7235 8.27621 14.829 8.27621 12.5001C8.27621 10.1711 10.1709 8.27637 12.4999 8.27637C14.8289 8.27637 16.7237 10.1711 16.7237 12.5001C16.7237 14.829 14.8288 16.7235 12.4999 16.7235Z" fill="#171515" fill-opacity="0.76"/>
<path d="M19.2119 4.17755C18.7845 4.17755 18.3647 4.35056 18.0629 4.65371C17.7596 4.95537 17.5853 5.37533 17.5853 5.80416C17.5853 6.23167 17.7598 6.65148 18.0629 6.95462C18.3646 7.25628 18.7845 7.43078 19.2119 7.43078C19.6407 7.43078 20.0592 7.25628 20.3623 6.95462C20.6655 6.65148 20.8385 6.23152 20.8385 5.80416C20.8385 5.37533 20.6655 4.95537 20.3623 4.65371C20.0607 4.35056 19.6407 4.17755 19.2119 4.17755Z" fill="#171515" fill-opacity="0.76"/>
</svg>
