<?xml version="1.0" encoding="UTF-8"?>
<svg xmlns="http://www.w3.org/2000/svg" xmlns:xlink="http://www.w3.org/1999/xlink" width="403pt" height="79pt" viewBox="0 0 403 79" version="1.1">
<defs>
<clipPath id="clip1">
  <path d="M 1.6875 0 L 79 0 L 79 79 L 1.6875 79 Z M 1.6875 0 "/>
</clipPath>
<clipPath id="clip2">
  <path d="M 360 20 L 401.3125 20 L 401.3125 72 L 360 72 Z M 360 20 "/>
</clipPath>
</defs>
<g id="surface1">
<g clip-path="url(#clip1)" clip-rule="nonzero">
<path style=" stroke:none;fill-rule:nonzero;fill:rgb(0%,23.921569%,64.313725%);fill-opacity:1;" d="M 1.6875 39.5 L 1.6875 34.800781 L 53.789062 34.800781 L 53.789062 26.972656 L 3.25 26.972656 C 7.941406 11.136719 23.746094 0 41.113281 0 C 61.605469 0 78.972656 17.402344 78.972656 39.5 C 78.972656 61.597656 61.605469 79 41.113281 79 C 23.746094 79 9.503906 67.863281 3.25 52.203125 L 53.789062 52.203125 L 53.789062 44.371094 L 1.6875 44.371094 L 1.6875 39.5 "/>
</g>
<path style=" stroke:none;fill-rule:nonzero;fill:rgb(0%,23.921569%,64.313725%);fill-opacity:1;" d="M 287.902344 58.46875 C 287.902344 66.296875 292.59375 69.605469 300.582031 69.605469 L 303.707031 69.605469 L 303.707031 60.207031 L 300.40625 60.207031 C 298.84375 60.207031 297.28125 60.207031 297.28125 57.074219 L 297.28125 0 L 287.902344 0 Z M 287.902344 58.46875 "/>
<path style=" stroke:none;fill-rule:nonzero;fill:rgb(0%,23.921569%,64.313725%);fill-opacity:1;" d="M 313.085938 69.605469 L 322.464844 69.605469 L 322.464844 20.53125 L 313.085938 20.53125 Z M 313.085938 11.136719 L 322.464844 11.136719 L 322.464844 0 L 313.085938 0 Z M 313.085938 11.136719 "/>
<path style=" stroke:none;fill-rule:nonzero;fill:rgb(0%,23.921569%,64.313725%);fill-opacity:1;" d="M 336.703125 69.605469 L 347.820312 69.605469 L 347.820312 28.363281 L 357.199219 28.363281 L 357.199219 20.53125 L 347.820312 20.53125 L 347.820312 14.269531 C 347.820312 11.136719 347.820312 9.570312 350.945312 9.570312 L 357.199219 9.570312 L 357.199219 0 L 350.945312 0 C 343.128906 0 336.703125 4.699219 336.703125 14.269531 L 336.703125 20.53125 L 332.015625 20.53125 L 332.015625 28.363281 L 336.703125 28.363281 Z M 336.703125 69.605469 "/>
<g clip-path="url(#clip2)" clip-rule="nonzero">
<path style=" stroke:none;fill-rule:nonzero;fill:rgb(0%,23.921569%,64.313725%);fill-opacity:1;" d="M 401.3125 49.070312 L 401.3125 41.238281 C 401.3125 28.539062 391.933594 20.707031 380.816406 20.707031 C 371.441406 20.707031 360.324219 26.972656 360.324219 45.9375 C 360.324219 66.472656 373.003906 71.167969 382.382812 71.167969 C 388.632812 71.167969 395.058594 68.039062 399.75 63.339844 L 393.496094 57.074219 C 390.371094 60.207031 385.679688 61.773438 382.382812 61.773438 C 376.128906 61.773438 369.703125 57.074219 369.703125 49.070312 Z M 369.875 41.066406 C 371.441406 33.234375 374.566406 29.929688 380.992188 29.929688 C 387.242188 29.929688 390.542969 33.0625 392.105469 41.066406 Z M 369.875 41.066406 "/>
</g>
<path style=" stroke:none;fill-rule:nonzero;fill:rgb(11.372549%,11.372549%,10.588235%);fill-opacity:1;" d="M 134.894531 49.070312 L 134.894531 41.238281 C 134.894531 28.539062 125.34375 20.707031 115.964844 20.707031 C 104.851562 20.707031 95.472656 26.972656 95.472656 45.9375 C 95.472656 66.472656 106.585938 71.167969 117.527344 71.167969 C 123.78125 71.167969 130.207031 69.605469 134.894531 63.339844 L 127.082031 57.074219 C 123.953125 60.207031 120.828125 61.773438 115.964844 61.773438 C 109.714844 61.773438 104.851562 58.640625 104.851562 49.070312 Z M 104.851562 41.066406 C 104.851562 33.234375 109.539062 29.929688 115.964844 29.929688 C 120.65625 29.929688 125.34375 33.0625 125.34375 41.066406 Z M 104.851562 41.066406 "/>
<path style=" stroke:none;fill-rule:nonzero;fill:rgb(11.372549%,11.372549%,10.588235%);fill-opacity:1;" d="M 185.261719 20.53125 L 185.261719 71.167969 L 175.882812 64.90625 C 172.757812 69.605469 168.066406 71.167969 163.203125 71.167969 C 155.390625 71.167969 145.835938 64.90625 145.835938 53.769531 L 145.835938 20.53125 L 155.214844 20.53125 L 155.214844 50.636719 C 155.214844 56.902344 159.90625 61.773438 166.332031 61.773438 C 171.019531 61.773438 175.710938 57.074219 175.710938 50.636719 L 175.710938 20.53125 Z M 185.261719 20.53125 "/>
<path style=" stroke:none;fill-rule:nonzero;fill:rgb(11.372549%,11.372549%,10.588235%);fill-opacity:1;" d="M 197.941406 20.53125 L 209.054688 26.796875 C 212.179688 22.097656 216.871094 20.53125 221.734375 20.53125 C 226.421875 20.53125 229.546875 22.097656 232.847656 23.664062 L 225.03125 33.0625 C 223.46875 31.496094 221.90625 29.929688 218.78125 29.929688 C 214.089844 29.929688 209.402344 33.0625 209.402344 41.066406 L 209.402344 71.167969 L 197.941406 71.167969 Z M 197.941406 20.53125 "/>
<path style=" stroke:none;fill-rule:nonzero;fill:rgb(11.372549%,11.372549%,10.588235%);fill-opacity:1;" d="M 232.675781 45.9375 C 232.675781 56.726562 234.0625 60.730469 238.058594 65.078125 C 241.011719 68.039062 245.351562 71.519531 253.167969 71.519531 C 260.984375 71.519531 265.324219 68.039062 268.277344 65.078125 C 272.273438 60.730469 273.660156 56.726562 273.660156 45.9375 C 273.660156 35.148438 272.273438 30.800781 268.277344 26.796875 C 265.324219 23.839844 260.984375 20.359375 253.167969 20.359375 C 245.351562 20.359375 241.011719 23.839844 238.058594 26.796875 C 234.238281 30.625 232.675781 35.148438 232.675781 45.9375 M 263.589844 45.9375 C 263.589844 53.246094 263.066406 55.335938 261.15625 57.769531 C 259.765625 59.683594 256.816406 61.25 253.339844 61.25 C 249.867188 61.25 246.914062 59.859375 245.003906 57.769531 C 243.617188 55.335938 242.574219 53.421875 242.574219 45.9375 C 242.574219 38.457031 243.617188 36.542969 245.003906 34.105469 C 246.914062 31.667969 249.867188 30.105469 253.339844 30.105469 C 256.816406 30.105469 259.765625 31.496094 261.15625 34.105469 C 263.066406 36.542969 263.589844 38.457031 263.589844 45.9375 "/>
</g>
</svg>
