<svg width="39" height="39" viewBox="0 0 39 39" fill="none" xmlns="http://www.w3.org/2000/svg">
<path d="M37.9767 30.0865L30.0829 24.8223C29.0812 24.1596 27.7384 24.3776 26.9978 25.3233L24.6984 28.2797C24.4029 28.6694 23.8658 28.7824 23.4383 28.5449L23.0009 28.3038C21.551 27.5135 19.7469 26.5296 16.1119 22.8934C12.477 19.2571 11.4911 17.4517 10.7008 16.0044L10.461 15.567C10.2202 15.1396 10.3311 14.6002 10.7209 14.3023L13.6753 12.0036C14.6206 11.263 14.839 9.92055 14.1771 8.9185L8.91286 1.02476C8.2345 0.00436346 6.87351 -0.301954 5.82333 0.329341L2.52246 2.31218C1.4853 2.92192 0.724385 3.90942 0.399255 5.06775C-0.789383 9.39869 0.104818 16.8732 11.1155 27.8852C19.8743 36.6433 26.3948 38.9986 30.8765 38.9986C31.908 39.003 32.9354 38.8688 33.9311 38.5996C35.0896 38.2748 36.0773 37.5138 36.6866 36.4764L38.6715 33.1775C39.3037 32.1271 38.9975 30.7652 37.9767 30.0865ZM37.5516 32.5106L35.5714 35.8115C35.1338 36.5603 34.4235 37.1109 33.5891 37.3479C29.5909 38.4456 22.6058 37.5364 12.0351 26.9657C1.46436 16.395 0.555232 9.41042 1.65293 5.41161C1.89025 4.57628 2.4415 3.86502 3.19123 3.42679L6.4921 1.44654C6.94777 1.17236 7.53847 1.30526 7.83283 1.74806L10.6924 6.04131L13.0926 9.64111C13.38 10.0758 13.2855 10.6583 12.8755 10.9799L9.92039 13.2786C9.02109 13.9663 8.76428 15.2105 9.31796 16.198L9.55261 16.6244C10.3832 18.1477 11.4159 20.0428 15.186 23.8123C18.9561 27.5817 20.8506 28.6145 22.3733 29.445L22.8002 29.6803C23.7876 30.2339 25.0319 29.9771 25.7196 29.0778L28.0183 26.1227C28.34 25.7129 28.9223 25.6185 29.3571 25.9057L37.2502 31.1699C37.6933 31.464 37.8262 32.055 37.5516 32.5106Z" fill="#19B385"/>
<path d="M22.0989 6.50337C28.1979 6.51015 33.1404 11.4527 33.1472 17.5518C33.1472 17.9107 33.4382 18.2016 33.7971 18.2016C34.1561 18.2016 34.447 17.9107 34.447 17.5518C34.4395 10.7352 28.9155 5.21108 22.0989 5.20361C21.7399 5.20361 21.449 5.49455 21.449 5.85349C21.449 6.21244 21.7399 6.50337 22.0989 6.50337Z" fill="#19B385"/>
<path d="M22.0989 10.4028C26.0452 10.4074 29.2432 13.6054 29.2478 17.5517C29.2478 17.9107 29.5388 18.2016 29.8977 18.2016C30.2566 18.2016 30.5476 17.9107 30.5476 17.5517C30.5422 12.8878 26.7627 9.10836 22.0989 9.10303C21.7399 9.10303 21.449 9.39396 21.449 9.75291C21.449 10.1119 21.7399 10.4028 22.0989 10.4028Z" fill="#19B385"/>
<path d="M22.0989 14.3022C23.8926 14.3043 25.3462 15.7579 25.3484 17.5517C25.3484 17.9107 25.6394 18.2016 25.9983 18.2016C26.3571 18.2016 26.6482 17.9107 26.6482 17.5517C26.6453 15.0404 24.6102 13.0053 22.0989 13.0024C21.7399 13.0024 21.449 13.2934 21.449 13.6523C21.449 14.0113 21.7399 14.3022 22.0989 14.3022Z" fill="#19B385"/>
</svg>
