<svg width="50" height="50" viewBox="0 0 50 50" fill="none" xmlns="http://www.w3.org/2000/svg">
<g clip-path="url(#clip0)">
<path d="M46.6011 1.4771C45.6265 0.502448 43.6947 -0.497384 40.0227 0.27433C37.5309 0.797706 34.5181 2.08364 31.2878 3.99747C29.3133 3.34631 27.2053 2.99268 25.0157 2.99268C13.9492 2.99268 4.94618 11.9957 4.94618 23.0622C4.94618 25.2213 5.28264 27.3251 5.94716 29.3404C4.03561 32.568 2.75082 35.579 2.22783 38.0692C1.4565 41.7409 2.45595 43.673 3.4306 44.6473C4.42586 45.6429 5.82165 46.1365 7.56154 46.1365C10.1349 46.1361 13.461 45.0551 17.3539 42.9211L20.5479 49.4523C20.6864 49.7353 20.9534 49.9344 21.2647 49.9863C21.3181 49.9955 21.3719 49.9997 21.4253 49.9997C21.682 49.9997 21.9311 49.8982 22.1157 49.7136L25.3922 46.4375C25.6302 46.1991 25.729 45.855 25.6531 45.5266L25.0988 43.1309C27.3636 43.1218 29.5754 42.7403 31.6872 41.9957L32.7412 44.0163L31.6384 45.1188C31.2569 45.5002 31.2569 46.1186 31.6384 46.5001C31.8291 46.6908 32.079 46.7862 32.3288 46.7862C32.5787 46.7862 32.8289 46.6908 33.0193 46.5001L33.688 45.8317L35.1765 48.6859C35.3203 48.9617 35.587 49.1524 35.8944 49.1997C35.944 49.2074 35.9932 49.2112 36.0424 49.2112C36.2996 49.2112 36.5487 49.1097 36.7333 48.9251L39.7412 45.9168C39.9472 45.7108 40.0505 45.4236 40.0227 45.1336L39.2655 37.1945C41.0313 35.4157 42.4309 33.3535 43.4292 31.0578C44.5282 28.5302 45.0856 25.84 45.0856 23.0622C45.0856 20.8733 44.7319 18.7653 44.0808 16.7916C48.3059 9.66611 49.2295 4.10543 46.6011 1.4771ZM24.1475 29.2965L13.3618 23.6714L15.1036 21.9296L30.0854 23.3586L24.1475 29.2965ZM32.206 21.238H28.619C26.9658 21.238 25.6203 19.8926 25.6203 18.2389C25.6203 16.977 26.6472 15.9501 27.9091 15.9501C29.4655 15.9501 30.7316 14.684 30.7316 13.1276C30.7316 10.9257 32.523 9.13473 34.7245 9.13473H36.5879C38.7776 10.957 40.5323 13.2847 41.671 15.9371C39.0774 15.8948 36.5418 16.9022 34.6821 18.7623L32.206 21.238ZM45.2198 2.85841C46.9742 4.61278 46.1693 8.97375 43.1534 14.4757C41.8415 11.7158 39.9178 9.30143 37.5588 7.40743C37.5557 7.40476 37.5527 7.40247 37.5496 7.3998C36.34 6.42972 35.0163 5.5966 33.6018 4.92445C39.1003 1.91198 43.4708 1.10899 45.2198 2.85841ZM33.8433 7.24721C30.9811 7.67408 28.7785 10.1483 28.7785 13.1276C28.7785 13.6067 28.3883 13.9966 27.9091 13.9966C25.57 13.9966 23.6668 15.8997 23.6668 18.2389C23.6668 19.1994 23.9426 20.0959 24.4175 20.8558L14.8312 19.9414C14.5413 19.9139 14.254 20.0169 14.0477 20.2233L11.0398 23.2312C10.8201 23.4513 10.7178 23.7626 10.7651 24.07C10.812 24.3775 11.0032 24.6438 11.2786 24.7876L14.1331 26.2765L13.4648 26.9452C13.0833 27.3263 13.0833 27.9446 13.4648 28.3261C13.6555 28.5168 13.9054 28.6122 14.1552 28.6122C14.4051 28.6122 14.6553 28.5168 14.8457 28.3261L15.9485 27.2236L18.4178 28.5115L17.7838 29.1455C17.4027 29.5266 17.4023 30.1449 17.7838 30.5268C17.9745 30.7171 18.2248 30.8125 18.4746 30.8125C18.7245 30.8125 18.9743 30.7171 19.1651 30.5268L20.2336 29.4583L22.6994 30.7446L18.2553 35.1887L14.4364 34.3113C14.1083 34.2358 13.765 34.3346 13.527 34.5727L12.2174 35.8822C8.82954 32.4959 6.89931 27.8664 6.89931 23.0626C6.89931 21.4238 7.11941 19.8357 7.52911 18.3251H13.9332C15.6853 18.3251 17.1109 16.8995 17.1109 15.1475V15.057C17.1109 14.3818 17.6602 13.8325 18.3354 13.8325C20.0875 13.8325 21.513 12.407 21.513 10.6549V10.1735C21.513 8.42138 20.0875 6.99583 18.3354 6.99583H16.6527C19.1563 5.68738 22.0009 4.94619 25.0161 4.94619C28.2189 4.94581 31.2294 5.78237 33.8433 7.24721ZM13.6715 8.94895H18.3354C19.0102 8.94895 19.5599 9.49827 19.5599 10.1735V10.6549C19.5599 11.3301 19.0102 11.8794 18.3354 11.8794C16.5829 11.8794 15.1574 13.305 15.1574 15.057V15.1475C15.1574 15.8227 14.608 16.372 13.9328 16.372H8.18028C9.34682 13.4465 11.2553 10.8948 13.6715 8.94895ZM4.8119 43.2663C3.06325 41.5177 3.86471 37.1502 6.87451 31.6548C7.86557 33.746 9.19537 35.6274 10.8361 37.2635L10.2509 37.8487C10.0277 38.0719 9.92627 38.3889 9.97815 38.7005C10.03 39.0118 10.2295 39.2785 10.5133 39.4169L15.3447 41.7733C13.052 42.9383 10.9532 43.7073 9.20262 44.0171C7.79194 44.2669 5.88498 44.3394 4.8119 43.2663ZM21.7019 47.3652L18.8534 41.5406C18.7577 41.3453 18.5997 41.1873 18.404 41.092L17.9203 40.8558C17.9196 40.8555 17.9188 40.8551 17.9184 40.8551L12.6004 38.2615L14.526 36.3358L18.3449 37.2132C18.6726 37.2887 19.0167 37.1899 19.2543 36.9519L36.0634 20.1432C37.6465 18.5597 39.8446 17.7502 42.0563 17.9081C42.2135 20.1203 41.4048 22.3179 39.8217 23.901L28.785 34.9377C28.7827 34.9396 28.7804 34.9423 28.7781 34.9442L23.0069 40.7158C22.7684 40.9539 22.67 41.2983 22.7459 41.6264L23.6279 45.4392L21.7019 47.3652ZM25.3098 41.1751L29.2199 37.2651L30.7736 40.2436C29.0165 40.833 27.1843 41.1458 25.3098 41.1751ZM36.2935 46.6027L30.6679 35.817L36.6059 29.8791L38.0349 44.8609L36.2935 46.6027ZM39.0149 34.5643L38.3973 28.0881L41.2026 25.2823C42.009 24.4763 42.6541 23.5428 43.1241 22.5327C43.129 22.7086 43.1324 22.8852 43.1324 23.0622C43.1321 27.3213 41.6829 31.3336 39.0149 34.5643Z" fill="#19B385"/>
<path d="M24.0033 36.9381C24.2531 36.9381 24.5034 36.8428 24.6937 36.6524L30.6816 30.6641C31.0631 30.283 31.0631 29.6646 30.6816 29.2832C30.3002 28.9017 29.6818 28.9017 29.3003 29.2832L23.3124 35.2711C22.9313 35.6526 22.9313 36.2709 23.3124 36.6524C23.5031 36.8431 23.7534 36.9381 24.0033 36.9381Z" fill="#19B385"/>
<path d="M32.7583 28.1829C33.0155 28.1829 33.2672 28.0787 33.4488 27.8968C33.6308 27.7152 33.7353 27.4634 33.7353 27.2063C33.7353 26.9496 33.6308 26.6974 33.4488 26.5158C33.2672 26.3343 33.0155 26.2297 32.7583 26.2297C32.5009 26.2297 32.2498 26.3343 32.0679 26.5158C31.8855 26.6974 31.7818 26.9496 31.7818 27.2063C31.7818 27.4634 31.8855 27.7152 32.0679 27.8968C32.2498 28.0787 32.5009 28.1829 32.7583 28.1829Z" fill="#19B385"/>
</g>
<defs>
<clipPath id="clip0">
<rect width="50" height="50" fill="white"/>
</clipPath>
</defs>
</svg>
