<svg width="60" height="46" viewBox="0 0 60 46" fill="none" xmlns="http://www.w3.org/2000/svg">
<path d="M43.2249 28.151C44.8151 28.151 46.1087 26.8572 46.1087 25.2671C46.1087 24.7816 45.7152 24.3882 45.2298 24.3882C44.7444 24.3882 44.3509 24.7816 44.3509 25.2671C44.3509 25.8881 43.8457 26.3931 43.2249 26.3931C42.604 26.3931 42.0988 25.8879 42.0988 25.2671C42.0988 24.7816 41.7053 24.3882 41.2199 24.3882C40.7345 24.3882 40.341 24.7816 40.341 25.2671C40.3409 26.8572 41.6346 28.151 43.2249 28.151Z" fill="#19B385"/>
<path d="M47.833 23.2208C48.3184 23.2208 48.7119 22.8274 48.7119 22.3419V21.4235C49.1459 21.3697 49.4818 20.9997 49.4818 20.5513C49.4818 20.0658 49.0883 19.6724 48.6029 19.6724H47.833C47.3476 19.6724 46.9541 20.0658 46.9541 20.5513V22.3419C46.9541 22.8274 47.3476 23.2208 47.833 23.2208Z" fill="#19B385"/>
<path d="M37.7376 21.4235V22.3419C37.7376 22.8274 38.1312 23.2208 38.6165 23.2208C39.1019 23.2208 39.4954 22.8274 39.4954 22.3419V20.5513C39.4954 20.0658 39.1019 19.6724 38.6165 19.6724H37.8466C37.3612 19.6724 36.9677 20.0658 36.9677 20.5513C36.9677 20.9996 37.3037 21.3697 37.7376 21.4235Z" fill="#19B385"/>
<path d="M56.3607 22.4998C56.6102 21.9719 56.7505 21.3827 56.7505 20.7611C56.7505 19.7267 56.3632 18.7815 55.727 18.061C55.828 17.9179 55.8878 17.7438 55.8878 17.5552C55.8878 14.9593 56.0174 13.4198 55.2364 11.1869C55.0761 10.7287 54.5748 10.4867 54.1166 10.6474C53.6584 10.8076 53.4169 11.309 53.5771 11.7672C54.2154 13.5919 54.1298 14.8577 54.1298 16.6763C53.0088 16.6763 49.9888 16.6763 48.7155 16.6763C46.1726 16.6763 44.1036 14.6075 44.1035 12.0645C44.1035 11.579 43.71 11.1856 43.2246 11.1856C42.7392 11.1856 42.3457 11.579 42.3457 12.0645C42.3457 14.6075 40.2768 16.6763 37.7337 16.6763H33.9148H32.3194V15.039C32.3194 9.57685 36.7631 5.1331 42.2252 5.1331C42.2917 5.1331 42.3457 5.18712 42.3457 5.25357C42.3457 5.73896 42.7392 6.13236 43.2246 6.13236C43.71 6.13236 44.1035 5.73896 44.1035 5.25357C44.1035 5.18712 44.1575 5.1331 44.224 5.1331C47.0875 5.13322 49.8098 6.37212 51.6933 8.53212C52.0123 8.8981 52.5675 8.93583 52.9334 8.61708C53.2992 8.29798 53.3372 7.74286 53.0182 7.377C50.8009 4.83404 47.5956 3.37552 44.2241 3.3754C43.8571 3.3754 43.5143 3.48122 43.2247 3.66392C42.9352 3.48122 42.5924 3.3754 42.2253 3.3754C35.794 3.3754 30.5617 8.60771 30.5617 15.0391V17.5553C30.5617 17.7438 30.6216 17.918 30.7225 18.0611C30.4274 18.3952 30.1857 18.7774 30.0118 19.1948C29.9063 17.8987 29.2523 16.7604 28.2761 16.0158V12.6674C28.2761 6.07493 22.9127 0.711615 16.3202 0.711615C14.6834 0.711615 15.3393 0.683372 13.0752 0.860325C9.95215 1.10408 7.15734 2.77529 5.46551 5.37521L2.81871 4.52923C2.27027 4.35345 1.70086 4.7465 1.6732 5.32447C1.66066 5.58931 1.39547 11.4752 2.46867 15.5747C1.00652 16.3081 0 17.8209 0 19.5652C0 21.8286 1.69406 23.7038 3.8809 23.9895C4.43133 26.3511 5.73164 28.4948 7.59176 30.0847C8.07949 30.5015 8.59992 30.8725 9.14484 31.1985H7.29539C4.2566 31.1985 1.78441 33.6708 1.78441 36.7095V44.4114C1.78441 44.8969 2.17793 45.2903 2.66332 45.2903H4.12336C4.60875 45.2903 5.00227 44.8969 5.00227 44.4114C5.00227 43.9259 4.60875 43.5325 4.12336 43.5325H3.54223V36.7095C3.54223 34.64 5.22586 32.9563 7.29539 32.9563H9.85219C10.2889 35.5478 12.6327 37.4963 15.3708 37.3196C17.8494 37.1599 19.8132 35.2949 20.2078 32.9563H22.765C24.8345 32.9563 26.5182 34.64 26.5182 36.7095V43.5325H8.22504C7.73965 43.5325 7.34613 43.9259 7.34613 44.4114C7.34613 44.8969 7.73965 45.2903 8.22504 45.2903H27.3973C27.8827 45.2903 28.2762 44.8969 28.2762 44.4114V36.7095C28.2762 35.9777 28.1316 35.2792 27.8714 34.6397H29.2835C30.1677 34.6397 31.011 34.4631 31.7817 34.1451C31.2395 34.9836 30.9233 35.9813 30.9233 37.0519V44.4114C30.9233 44.8969 31.3168 45.2903 31.8022 45.2903H54.7065C55.1919 45.2903 55.5854 44.8969 55.5854 44.4114V37.0519C55.5854 35.9945 55.277 35.0083 54.7471 34.1763C55.4964 34.4742 56.3121 34.6397 57.1664 34.6397H59.1211C59.6065 34.6397 60 34.2463 60 33.7608V28.3779C60 25.8741 58.5489 23.5976 56.3607 22.4998ZM37.7339 18.4342C40.0699 18.4342 42.1162 17.1705 43.2248 15.2904C44.3336 17.1705 46.3798 18.4342 48.7158 18.4342H52.6658C53.9489 18.4342 54.9927 19.478 54.9927 20.7611C54.9927 21.3885 54.742 21.9576 54.337 22.3764C53.8743 22.8545 53.2325 23.1122 52.5725 23.0854C52.128 23.0649 51.7417 23.3809 51.6686 23.8185C50.9999 27.8161 47.5417 30.9571 43.2248 30.9571C40.1749 30.9571 37.326 29.3447 35.793 26.6633C35.7787 26.627 35.7623 26.5915 35.7432 26.5573C35.3854 25.9154 35.1139 25.2372 34.9328 24.5336C34.9291 24.5195 34.9262 24.5052 34.9227 24.4912C34.8728 24.2929 34.8253 24.0826 34.7811 23.8184C34.7081 23.3819 34.3201 23.0651 33.8771 23.0853C32.5618 23.1387 31.457 22.0776 31.457 20.7609C31.457 19.4778 32.5009 18.434 33.7839 18.434C33.8159 18.434 33.8477 18.4354 33.8795 18.4366C33.917 18.4381 33.9539 18.4372 33.9905 18.434H37.7339V18.4342ZM43.2393 36.4121C41.567 36.4121 40.2064 35.0515 40.2064 33.3792V32.5609V32.2655C41.2039 32.5716 42.2456 32.7152 43.2247 32.7152C44.2359 32.7152 45.289 32.5616 46.272 32.2567V33.3793C46.272 34.9994 44.9951 36.3269 43.395 36.4082C43.3434 36.4108 43.2915 36.4121 43.2393 36.4121ZM36.292 31.682C36.2918 31.682 36.2913 31.682 36.291 31.682C35.6885 31.6823 35.1096 31.7838 34.5686 31.9677C35.1117 31.2334 35.5051 30.3824 35.7048 29.4598C35.9626 29.7344 36.2352 29.9968 36.5237 30.2433C37.1177 30.751 37.7643 31.1853 38.4486 31.5425V31.682H36.292ZM48.0299 31.5281C49.0248 31.0048 49.9351 30.3222 50.7448 29.4599C50.9421 30.3715 51.3289 31.2131 51.8623 31.9414C50.8588 31.6172 50.3352 31.682 48.03 31.682V31.5281H48.0299ZM3.40031 6.56044L5.59277 7.26111C5.99227 7.38849 6.42656 7.21634 6.62953 6.84908C7.97613 4.41298 10.437 2.82919 13.2121 2.61275C15.4216 2.44025 14.7517 2.46931 16.3202 2.46931C21.9434 2.46931 26.5182 7.04408 26.5182 12.6673V15.2062C25.7502 15.0408 25.9931 15.1067 13.9392 15.1067C13.0629 15.1067 12.2235 14.9119 11.4671 14.5602C9.8032 13.7866 8.54133 12.2534 8.17172 10.3641C8.03051 9.64224 7.14199 9.42509 6.66738 9.93239C5.39953 11.2878 4.51312 12.8934 4.03184 14.5597C3.4275 11.8259 3.37863 8.33736 3.40031 6.56044ZM5.47465 22.9996C5.40352 22.5746 5.03566 22.2657 4.60816 22.2657C4.59633 22.2657 4.58438 22.2659 4.57242 22.2664C4.53574 22.2679 4.49906 22.2693 4.46203 22.2693C2.97094 22.2693 1.75781 21.0563 1.75781 19.5652C1.75781 18.0992 2.92641 16.9142 4.36383 16.8634C4.36734 16.8633 4.37098 16.8633 4.37449 16.8632C4.43988 16.8612 4.50527 16.8612 4.57031 16.8639C4.57172 16.8639 4.57312 16.8639 4.57453 16.864C4.57723 16.8642 4.57992 16.8638 4.58262 16.8639C5.02102 16.8775 5.40211 16.5643 5.47465 16.1308C5.67305 14.9445 6.08965 13.816 6.70066 12.7929C6.78797 12.6468 6.87926 12.5028 6.97441 12.3611C8.18426 15.0481 10.8893 16.8646 13.9392 16.8646H25.6925H25.6931C26.1198 16.8843 26.5642 17.0131 26.9473 17.2413C26.9541 17.2454 26.9613 17.2481 26.9682 17.2519C27.7513 17.7255 28.2702 18.5833 28.2702 19.5651C28.2702 21.0562 27.0571 22.2692 25.566 22.2692C25.5289 22.2692 25.4921 22.2677 25.4555 22.2663C25.0133 22.2504 24.6264 22.5627 24.5532 22.9995C23.7567 27.7625 19.6582 31.0645 15.0139 31.0645C10.3339 31.0646 6.26555 27.7286 5.47465 22.9996ZM14.8539 35.5695C13.134 35.4835 11.7318 34.1457 11.5557 32.4397C11.5545 32.4269 11.5538 32.4139 11.5526 32.401C11.5491 32.363 11.5461 32.3248 11.5439 32.2865C12.7014 32.6559 13.9083 32.8223 15.0142 32.8223C16.1409 32.8223 17.3576 32.65 18.5179 32.2756C18.4116 34.1897 16.7706 35.6652 14.8539 35.5695ZM22.7651 31.1985H20.8834C21.4283 30.8725 21.9487 30.5015 22.4365 30.0847C24.2965 28.4949 25.5969 26.3512 26.1472 23.9895C27.7809 23.7761 29.1394 22.6754 29.722 21.1885C29.7705 21.653 29.8972 22.0946 30.0887 22.4998C27.9006 23.5976 26.4495 25.874 26.4495 28.3779V32.6153C25.4726 31.7352 24.1805 31.1985 22.7651 31.1985ZM28.2074 32.8819V28.3779C28.2074 26.4222 29.4156 24.6549 31.1984 23.9231C31.7822 24.3998 32.4852 24.6993 33.1881 24.8026C33.3911 25.6504 33.7106 26.4786 34.0965 27.2085V28.0684C34.0965 30.7225 31.9373 32.8818 29.2833 32.8818H28.2074V32.8819ZM53.8275 43.5325H32.681V37.0519C32.681 35.0602 34.3015 33.4399 36.2932 33.4399H38.4491C38.4814 36.0352 40.6032 38.1699 43.2393 38.1699C45.8452 38.1699 47.9966 36.068 48.0295 33.4399H50.2153C52.207 33.4399 53.8274 35.0602 53.8274 37.0519V43.5325H53.8275ZM58.2422 32.8819H57.1662C54.5121 32.8819 52.3529 30.7226 52.3529 28.0686V27.2086C52.7446 26.4678 53.061 25.6397 53.2614 24.8027C53.9217 24.7058 54.5876 24.4374 55.1667 23.9875C55.1947 23.9658 55.2237 23.9457 55.2511 23.9233C57.034 24.655 58.2422 26.4222 58.2422 28.3779V32.8819Z" fill="#19B385"/>
<path d="M15.0141 27.7362C16.7344 27.7362 18.134 26.3366 18.134 24.6163C18.134 24.1308 17.7405 23.7374 17.2551 23.7374C16.7697 23.7374 16.3762 24.1308 16.3762 24.6163C16.3762 25.3674 15.7652 25.9784 15.0141 25.9784C14.263 25.9784 13.6519 25.3674 13.6519 24.6163C13.6519 24.1308 13.2584 23.7374 12.773 23.7374C12.2876 23.7374 11.8941 24.1308 11.8941 24.6163C11.8942 26.3365 13.2938 27.7362 15.0141 27.7362Z" fill="#19B385"/>
<path d="M9.86346 18.4958C9.37807 18.4958 8.98456 18.8892 8.98456 19.3748V21.318C8.98456 21.8035 9.37807 22.1969 9.86346 22.1969C10.3489 22.1969 10.7424 21.8035 10.7424 21.318V19.3748C10.7424 18.8894 10.3489 18.4958 9.86346 18.4958Z" fill="#19B385"/>
<path d="M20.1647 22.1969C20.6501 22.1969 21.0436 21.8035 21.0436 21.318V19.3748C21.0436 18.8892 20.6501 18.4958 20.1647 18.4958C19.6793 18.4958 19.2858 18.8892 19.2858 19.3748V21.318C19.2858 21.8035 19.6793 22.1969 20.1647 22.1969Z" fill="#19B385"/>
</svg>
