<svg width="44" height="50" viewBox="0 0 44 50" fill="none" xmlns="http://www.w3.org/2000/svg">
<path d="M25.2661 15.362C25.6714 15.362 26 15.0335 26 14.6281V13.4535C26 13.0482 25.6714 12.7196 25.2661 12.7196C24.8608 12.7196 24.5322 13.0482 24.5322 13.4535V14.6281C24.5322 15.0335 24.8607 15.362 25.2661 15.362Z" fill="#19B385"/>
<path d="M18.8406 15.362C19.2459 15.362 19.5745 15.0335 19.5745 14.6281V13.4535C19.5745 13.0482 19.2459 12.7196 18.8406 12.7196C18.4353 12.7196 18.1067 13.0482 18.1067 13.4535V14.6281C18.1067 15.0335 18.4353 15.362 18.8406 15.362Z" fill="#19B385"/>
<path d="M19.4991 18.4607C19.7251 19.0012 20.5133 19.9064 22.0533 19.9064C23.5933 19.9064 24.3815 19.0013 24.6075 18.4607C24.6495 18.3682 24.6735 18.2657 24.6735 18.1575C24.6735 17.7516 24.3444 17.4224 23.9384 17.4224C23.632 17.4224 23.3691 17.6095 23.2587 17.8759C23.2587 17.8758 23.2587 17.8759 23.2587 17.8758C23.231 17.9331 22.9627 18.4358 22.0532 18.4358C21.1437 18.4358 20.8754 17.9331 20.8477 17.8758C20.8477 17.8759 20.8478 17.8758 20.8477 17.8759C20.7373 17.6095 20.4744 17.4224 20.168 17.4224C19.7621 17.4224 19.4329 17.7515 19.4329 18.1575C19.4331 18.2657 19.4571 18.3682 19.4991 18.4607Z" fill="#19B385"/>
<path d="M8.29276 45.6305C8.69804 45.6305 9.02665 45.302 9.02665 44.8966V36.8024C9.02665 36.3971 8.69813 36.0685 8.29276 36.0685H6.56268C6.15741 36.0685 5.8288 36.3971 5.8288 36.8024C5.8288 37.2076 6.15741 37.5363 6.56268 37.5363H7.55897V44.8967C7.55887 45.3019 7.88749 45.6305 8.29276 45.6305Z" fill="#19B385"/>
<path d="M10.5099 42.5559C10.5099 44.2512 11.8891 45.6304 13.5844 45.6304C15.2797 45.6304 16.6589 44.2512 16.6589 42.5559C16.6589 41.5535 16.1766 40.6618 15.4319 40.1002C15.8008 39.6726 16.0246 39.1164 16.0246 38.5087C16.0246 37.1631 14.9299 36.0684 13.5843 36.0684C12.2387 36.0684 11.1439 37.1631 11.1439 38.5087C11.1439 39.1164 11.3678 39.6726 11.7366 40.1002C10.9922 40.6618 10.5099 41.5535 10.5099 42.5559ZM13.5844 44.1628C12.6984 44.1628 11.9776 43.442 11.9776 42.556C11.9776 41.6699 12.6984 40.9491 13.5844 40.9491C14.4704 40.9491 15.1912 41.6699 15.1912 42.556C15.1912 43.442 14.4704 44.1628 13.5844 44.1628ZM12.6118 38.5088C12.6118 37.9725 13.0481 37.5362 13.5844 37.5362C14.1206 37.5362 14.557 37.9726 14.557 38.5088C14.557 39.045 14.1207 39.4813 13.5844 39.4813C13.048 39.4813 12.6118 39.045 12.6118 38.5088Z" fill="#19B385"/>
<path d="M34.9619 45.5977C34.9837 45.5977 35.0058 45.5975 35.0275 45.597C36.7012 45.5633 38.0801 44.2284 38.1667 42.558C38.2129 41.6685 37.9013 40.8237 37.2892 40.179C36.6856 39.5433 35.8374 39.1788 34.9617 39.1788C34.6678 39.1788 34.4181 39.1952 34.1953 39.2264L34.5015 37.3787H36.9204C37.3257 37.3787 37.6543 37.0501 37.6543 36.6448C37.6543 36.2394 37.3257 35.9109 36.9204 35.9109H33.8792C33.5202 35.9109 33.2139 36.1707 33.1553 36.5249L32.5528 40.1612C32.5076 40.4342 32.6211 40.7089 32.8443 40.8725C33.0677 41.0361 33.3652 41.0594 33.6119 40.9339C33.6183 40.9307 33.6431 40.9184 33.6829 40.9005C34.024 40.747 34.2973 40.6464 34.9617 40.6464C35.4437 40.6464 35.8923 40.8393 36.2247 41.1895C36.5569 41.5394 36.7261 41.9984 36.701 42.4819C36.654 43.3875 35.9059 44.1113 34.9979 44.1296C34.1128 44.1477 33.3583 43.5036 33.2367 42.6322C33.2255 42.5519 33.2198 42.4698 33.2198 42.3881C33.2198 41.9829 32.8912 41.6542 32.4859 41.6542C32.0807 41.6542 31.752 41.9829 31.752 42.3881C31.752 42.5373 31.7625 42.6874 31.783 42.8348C32.0044 44.4207 33.3647 45.5978 34.9619 45.5977Z" fill="#19B385"/>
<path d="M30.2755 38.6831C30.2755 37.1364 29.0172 35.8781 27.4704 35.8781C26.133 35.8781 24.9755 36.8294 24.7181 38.1402C24.6399 38.5378 24.899 38.9237 25.2967 39.0017C25.6942 39.0795 26.0801 38.8207 26.1582 38.4231C26.2809 37.7989 26.8327 37.3457 27.4704 37.3457C28.2078 37.3457 28.8077 37.9456 28.8077 38.683C28.8077 39.4204 28.2078 40.0203 27.4704 40.0203C27.0651 40.0203 26.7365 40.3489 26.7365 40.7542C26.7365 41.1595 27.0651 41.4881 27.4704 41.4881C28.2078 41.4881 28.8077 42.088 28.8077 42.8254C28.8077 43.5628 28.2078 44.1627 27.4704 44.1627C26.8069 44.1627 26.2376 43.6684 26.146 43.0127C26.1374 42.9514 26.1331 42.8884 26.1331 42.8254C26.1331 42.4201 25.8045 42.0915 25.3992 42.0915C24.9939 42.0915 24.6653 42.4201 24.6653 42.8254C24.6653 42.956 24.6744 43.0873 24.6923 43.2156C24.8845 44.5923 26.0787 45.6304 27.4703 45.6304C29.017 45.6304 30.2754 44.3721 30.2754 42.8253C30.2754 42.0059 29.9221 41.2674 29.3599 40.7541C29.9222 40.2409 30.2755 39.5026 30.2755 38.6831Z" fill="#19B385"/>
<path d="M19.4202 40.0205C19.0149 40.0205 18.6863 40.3491 18.6863 40.7544C18.6863 41.1597 19.0149 41.4883 19.4202 41.4883H21.7865C22.1918 41.4883 22.5204 41.1598 22.5204 40.7544C22.5204 40.349 22.1918 40.0205 21.7865 40.0205H19.4202Z" fill="#19B385"/>
<path d="M39.4021 31.5086H34.1328C32.8337 27.5993 30.6476 25.2222 29.0074 23.9023C28.1941 23.2479 27.4362 22.7837 26.8329 22.4657C28.5388 21.1874 29.7163 19.2429 29.981 17.0221C30.1106 17.0381 30.2417 17.0469 30.3744 17.0469C32.1174 17.0469 33.5353 15.6289 33.5353 13.8859C33.5353 12.8779 33.0605 11.9794 32.3234 11.4002C32.8602 9.79873 32.9515 8.05195 32.5729 6.4167C32.4815 6.02178 32.0873 5.77578 31.6926 5.86719C31.2977 5.95859 31.0517 6.35273 31.1431 6.74756C31.449 8.06963 31.3888 9.47939 30.9807 10.784C30.7844 10.7457 30.5817 10.725 30.3743 10.725C30.0153 10.725 29.667 10.7844 29.3341 10.9009C27.2769 9.79277 25.0397 6.63643 25.0166 6.60332C24.9002 6.4377 24.7206 6.32754 24.5201 6.29883C24.3195 6.26992 24.1164 6.32549 23.9582 6.45176C23.9084 6.4915 19.0085 10.3722 14.9087 10.9526C14.535 10.8021 14.1406 10.7249 13.7323 10.7249C13.5071 10.7249 13.2874 10.749 13.0754 10.794C12.8324 8.12109 13.3936 5.971 14.7496 4.39404C16.6048 2.23643 19.7389 1.46768 22.0533 1.46768C24.3373 1.46768 25.6016 2.73525 25.6511 2.78604C25.8197 2.96299 26.0687 3.04365 26.3099 3.00254C26.3266 2.99971 27.9936 2.72861 29.385 3.75117C29.6197 3.92373 29.8426 4.13897 30.0476 4.39092C30.3032 4.70537 30.7655 4.75293 31.08 4.49727C31.3944 4.2416 31.442 3.77939 31.1863 3.46494C30.9029 3.11641 30.5893 2.81484 30.2543 2.56855C28.7874 1.49043 27.1525 1.46152 26.4288 1.51436C25.8333 1.02051 24.3278 0 22.0534 0C20.7723 0 16.3791 0.247851 13.6368 3.43721C11.9131 5.44189 11.2545 8.14941 11.6751 11.4892C11.0002 12.0693 10.5715 12.9282 10.5715 13.8859C10.5715 15.6289 11.9894 17.0469 13.7324 17.0469C13.865 17.0469 13.9962 17.0381 14.1257 17.0221C14.3904 19.2427 15.5679 21.1871 17.2736 22.4654C16.4095 22.9207 15.2283 23.6765 14.0201 24.8627C13.7309 25.1467 13.7267 25.6112 14.0106 25.9005C14.2947 26.1898 14.7594 26.1938 15.0484 25.91C16.3849 24.5979 17.6881 23.8754 18.4298 23.5324L19.6876 26.72L18.8133 31.5085H11.5267C11.9826 30.2525 12.5661 29.0945 13.2673 28.0557C13.494 27.7197 13.4056 27.2636 13.0695 27.0369C12.7336 26.8102 12.2775 26.8987 12.0508 27.2346C11.1895 28.5105 10.4936 29.9468 9.97509 31.5085H4.59784C2.5746 31.5085 0.928604 33.1545 0.928604 35.1777V46.3306C0.928604 48.3538 2.5746 49.9998 4.59784 49.9998H29.9298C30.3351 49.9998 30.6637 49.6712 30.6637 49.2659C30.6637 48.8606 30.3351 48.532 29.9298 48.532H4.59784C3.38388 48.532 2.39628 47.5444 2.39628 46.3305V35.1779C2.39628 33.964 3.38388 32.9764 4.59784 32.9764H39.4021C40.6161 32.9764 41.6037 33.964 41.6037 35.1779V46.3308C41.6037 47.5447 40.6161 48.5323 39.4021 48.5323H32.8651C32.4599 48.5323 32.1312 48.8609 32.1312 49.2662C32.1312 49.6715 32.4598 50.0001 32.8651 50.0001H39.4021C41.4254 50.0001 43.0714 48.3541 43.0714 46.3309V35.1779C43.0714 33.1546 41.4254 31.5086 39.4021 31.5086ZM23.1604 25.9119H20.9464L20.1209 23.8199C20.74 23.9744 21.387 24.0576 22.0533 24.0576C22.7196 24.0576 23.3667 23.9743 23.9858 23.8199L23.1604 25.9119ZM32.0676 13.8859C32.0676 14.8196 31.308 15.5792 30.3743 15.5792C30.2603 15.5792 30.1489 15.5661 30.0395 15.5441V12.2277C30.1489 12.2058 30.2603 12.1927 30.3743 12.1927C31.308 12.1928 32.0676 12.9523 32.0676 13.8859ZM12.0392 13.8859C12.0392 12.9522 12.7987 12.1927 13.7324 12.1927C13.8464 12.1927 13.9578 12.2058 14.0672 12.2277V15.5441C13.9579 15.5661 13.8464 15.5792 13.7324 15.5792C12.7987 15.5792 12.0392 14.8196 12.0392 13.8859ZM15.5349 16.0715V12.3373C17.3152 12.0082 19.3625 11.158 21.6322 9.8041C22.7708 9.1249 23.7014 8.47393 24.2691 8.05732C25.0689 9.09365 26.8061 11.1711 28.5719 12.1572V16.0715C28.5719 19.6658 25.6476 22.5899 22.0534 22.5899C18.459 22.5899 15.5349 19.6658 15.5349 16.0715ZM20.3051 31.5086L21.059 27.3796H23.0478L23.8018 31.5086H20.3051ZM25.2935 31.5086L24.4193 26.7202L25.6774 23.5315C27.1203 24.1981 30.6936 26.3123 32.5803 31.5086H25.2935Z" fill="#19B385"/>
</svg>
