<svg width="50" height="50" viewBox="0 0 50 50" fill="none" xmlns="http://www.w3.org/2000/svg">
<g clip-path="url(#clip0)">
<path d="M43.2894 13.51C46.9954 13.51 50.0001 10.5056 50.0001 6.79925C50.0001 3.09327 46.9954 0.088501 43.2894 0.088501C39.583 0.088501 36.5786 3.09327 36.5786 6.79925C36.5827 10.504 39.5846 13.5059 43.2894 13.51ZM43.2894 1.76619C46.0689 1.76619 48.3225 4.01976 48.3225 6.79925C48.3225 9.57915 46.0689 11.8323 43.2894 11.8323C40.5095 11.8323 38.2563 9.57915 38.2563 6.79925C38.2588 4.02099 40.5107 1.76906 43.2894 1.76619Z" fill="#19B385"/>
<path d="M14.6486 19.7295C15.63 19.7311 16.5721 19.342 17.2659 18.6473L24.8348 11.0776L29.8871 16.13C31.3321 17.575 33.6746 17.575 35.1196 16.13L35.125 16.125C36.5659 14.6792 36.5659 12.34 35.125 10.8941L27.7998 3.57106C26.1623 1.93351 23.5073 1.93351 21.8693 3.57106L12.0281 13.4115C10.9705 14.4707 10.6551 16.0628 11.2285 17.4456C11.8024 18.8279 13.1516 19.7295 14.6486 19.7295ZM13.2143 14.601L23.0555 4.75683C24.0381 3.77462 25.631 3.77462 26.614 4.75683L33.9388 12.0844C34.726 12.8745 34.726 14.1529 33.9388 14.943L33.9335 14.9483C33.1429 15.7363 31.8638 15.7363 31.0733 14.9483L25.4279 9.30207C25.1002 8.97439 24.5694 8.97439 24.2417 9.30207L16.0789 17.4611C15.2774 18.2283 14.013 18.2263 13.2143 17.4562C12.4291 16.6665 12.4291 15.3906 13.2143 14.601Z" fill="#19B385"/>
<path d="M46.6447 21.8986H38.2563V17.7044C38.2563 17.3653 38.0519 17.0597 37.7381 16.9299C37.4248 16.8 37.064 16.8717 36.8243 17.1113L31.7913 22.1444C31.634 22.3017 31.5455 22.5151 31.5455 22.7375V26.0929C31.5455 27.483 32.6719 28.6094 34.0621 28.6094H46.6447C48.4977 28.6094 50.0001 27.1074 50.0001 25.254C50.0001 23.401 48.4977 21.8986 46.6447 21.8986ZM46.6447 26.9317H34.0621C33.5988 26.9317 33.2232 26.5561 33.2232 26.0929V23.0848L36.5786 19.7294V22.7375C36.5786 23.2007 36.9542 23.5763 37.4174 23.5763H46.6447C47.5712 23.5763 48.3224 24.3275 48.3224 25.254C48.3224 26.1809 47.5712 26.9317 46.6447 26.9317Z" fill="#19B385"/>
<path d="M21.2513 32.8875L17.2012 28.8375C16.8682 28.5229 16.3476 28.5229 16.0151 28.8375L1.08378 43.7691C-0.36126 45.2138 -0.36126 47.5562 1.08378 49.0009V49.0049C2.52923 50.4479 4.87005 50.4479 6.3155 49.0049L21.2468 34.0737C21.5757 33.7473 21.5773 33.2164 21.2513 32.8875ZM5.13178 47.8192C4.34209 48.6072 3.06293 48.6072 2.27324 47.8192H2.26996C1.47986 47.0299 1.47986 45.7495 2.26996 44.9602L16.6073 30.6168L19.4712 33.4814L5.13178 47.8192Z" fill="#19B385"/>
<path d="M25.6163 24.1534C24.6857 23.1949 23.3103 22.812 22.018 23.1511C20.7253 23.4906 19.7161 24.4999 19.3761 25.7926C19.0366 27.0848 19.4192 28.4602 20.378 29.3912L26.9319 35.9435L18.9846 40.1787C17.2172 41.1883 16.6003 43.4382 17.6063 45.2076L17.7255 45.4276C18.3907 46.5781 19.619 47.2867 20.9482 47.2863C21.5834 47.2871 22.2077 47.1212 22.7586 46.805L33.1049 41.2407L34.4471 40.4699C35.5804 39.8207 36.3468 38.68 36.5196 37.3848C36.6921 36.0901 36.2513 34.7884 35.3277 33.8648L25.6163 24.1534ZM34.8563 37.1657C34.7543 37.9415 34.2943 38.6247 33.614 39.0113L21.9431 45.3379C20.9801 45.8896 19.7522 45.5648 19.1886 44.6088L19.0685 44.3889C18.5193 43.4304 18.842 42.2086 19.7931 41.6466L28.7194 36.8913C28.9541 36.7663 29.1154 36.5374 29.1543 36.2744C29.1933 36.0115 29.1056 35.7456 28.9172 35.5576L21.5634 28.205C20.7716 27.4133 20.7716 26.1296 21.5634 25.3379C22.3551 24.5462 23.6388 24.5462 24.4305 25.3379L34.146 35.051C34.7023 35.6047 34.9652 36.3883 34.8563 37.1657Z" fill="#19B385"/>
</g>
<defs>
<clipPath id="clip0">
<rect width="50" height="50" fill="white"/>
</clipPath>
</defs>
</svg>
