<svg width="50" height="50" viewBox="0 0 50 50" fill="none" xmlns="http://www.w3.org/2000/svg">
<path d="M9.19122 27.8635H12.6343C12.7897 27.8635 12.9387 27.8018 13.0486 27.6919C13.1585 27.582 13.2202 27.433 13.2202 27.2776C13.2202 27.1222 13.1585 26.9732 13.0486 26.8633C12.9387 26.7534 12.7897 26.6917 12.6343 26.6917H9.19122C9.03582 26.6917 8.88679 26.7534 8.7769 26.8633C8.66702 26.9732 8.60529 27.1222 8.60529 27.2776C8.60529 27.433 8.66702 27.582 8.7769 27.6919C8.88679 27.8018 9.03582 27.8635 9.19122 27.8635Z" fill="#19B385"/>
<path d="M17.6553 14.8457H23.9889C24.1443 14.8457 24.2933 14.784 24.4032 14.6741C24.5131 14.5642 24.5748 14.4152 24.5748 14.2598C24.5748 14.1044 24.5131 13.9553 24.4032 13.8454C24.2933 13.7356 24.1443 13.6738 23.9889 13.6738H17.6553C17.4999 13.6738 17.3508 13.7356 17.241 13.8454C17.1311 13.9553 17.0693 14.1044 17.0693 14.2598C17.0693 14.4152 17.1311 14.5642 17.241 14.6741C17.3508 14.784 17.4999 14.8457 17.6553 14.8457Z" fill="#19B385"/>
<path d="M28.8184 20.4268H32.902C33.0574 20.4268 33.2064 20.365 33.3163 20.2551C33.4262 20.1453 33.4879 19.9962 33.4879 19.8408C33.4879 19.6854 33.4262 19.5364 33.3163 19.4265C33.2064 19.3166 33.0574 19.2549 32.902 19.2549H28.8184C28.663 19.2549 28.5139 19.3166 28.404 19.4265C28.2942 19.5364 28.2324 19.6854 28.2324 19.8408C28.2324 19.9962 28.2942 20.1453 28.404 20.2551C28.5139 20.365 28.663 20.4268 28.8184 20.4268Z" fill="#19B385"/>
<path d="M17.6553 18.1729H23.9889C24.1443 18.1729 24.2933 18.1111 24.4032 18.0012C24.5131 17.8914 24.5748 17.7423 24.5748 17.5869C24.5748 17.4315 24.5131 17.2825 24.4032 17.1726C24.2933 17.0627 24.1443 17.001 23.9889 17.001H17.6553C17.4999 17.001 17.3508 17.0627 17.241 17.1726C17.1311 17.2825 17.0693 17.4315 17.0693 17.5869C17.0693 17.7423 17.1311 17.8914 17.241 18.0012C17.3508 18.1111 17.4999 18.1729 17.6553 18.1729Z" fill="#19B385"/>
<path d="M17.6553 21.4995H23.9889C24.1443 21.4995 24.2933 21.4378 24.4032 21.3279C24.5131 21.218 24.5748 21.069 24.5748 20.9136C24.5748 20.7582 24.5131 20.6091 24.4032 20.4993C24.2933 20.3894 24.1443 20.3276 23.9889 20.3276H17.6553C17.4999 20.3276 17.3508 20.3894 17.241 20.4993C17.1311 20.6091 17.0693 20.7582 17.0693 20.9136C17.0693 21.069 17.1311 21.218 17.241 21.3279C17.3508 21.4378 17.4999 21.4995 17.6553 21.4995Z" fill="#19B385"/>
<path d="M17.6553 24.8267H23.9889C24.1443 24.8267 24.2933 24.7649 24.4032 24.655C24.5131 24.5452 24.5748 24.3961 24.5748 24.2407C24.5748 24.0853 24.5131 23.9363 24.4032 23.8264C24.2933 23.7165 24.1443 23.6548 23.9889 23.6548H17.6553C17.4999 23.6548 17.3508 23.7165 17.241 23.8264C17.1311 23.9363 17.0693 24.0853 17.0693 24.2407C17.0693 24.3961 17.1311 24.5452 17.241 24.655C17.3508 24.7649 17.4999 24.8267 17.6553 24.8267Z" fill="#19B385"/>
<path d="M17.6553 28.1533H23.9889C24.1443 28.1533 24.2933 28.0916 24.4032 27.9817C24.5131 27.8718 24.5748 27.7228 24.5748 27.5674C24.5748 27.412 24.5131 27.2629 24.4032 27.1531C24.2933 27.0432 24.1443 26.9814 23.9889 26.9814H17.6553C17.4999 26.9814 17.3508 27.0432 17.241 27.1531C17.1311 27.2629 17.0693 27.412 17.0693 27.5674C17.0693 27.7228 17.1311 27.8718 17.241 27.9817C17.3508 28.0916 17.4999 28.1533 17.6553 28.1533Z" fill="#19B385"/>
<path d="M28.8184 23.6865H32.902C33.0574 23.6865 33.2064 23.6248 33.3163 23.5149C33.4262 23.405 33.4879 23.256 33.4879 23.1006C33.4879 22.9452 33.4262 22.7962 33.3163 22.6863C33.2064 22.5764 33.0574 22.5146 32.902 22.5146H28.8184C28.663 22.5146 28.5139 22.5764 28.404 22.6863C28.2942 22.7962 28.2324 22.9452 28.2324 23.1006C28.2324 23.256 28.2942 23.405 28.404 23.5149C28.5139 23.6248 28.663 23.6865 28.8184 23.6865Z" fill="#19B385"/>
<path d="M28.8184 26.9463H32.902C33.0574 26.9463 33.2064 26.8846 33.3163 26.7747C33.4262 26.6648 33.4879 26.5158 33.4879 26.3604C33.4879 26.205 33.4262 26.0559 33.3163 25.946C33.2064 25.8361 33.0574 25.7744 32.902 25.7744H28.8184C28.663 25.7744 28.5139 25.8361 28.404 25.946C28.2942 26.0559 28.2324 26.205 28.2324 26.3604C28.2324 26.5158 28.2942 26.6648 28.404 26.7747C28.5139 26.8846 28.663 26.9463 28.8184 26.9463Z" fill="#19B385"/>
<path d="M28.8184 17.167H32.902C33.0574 17.167 33.2064 17.1053 33.3163 16.9954C33.4262 16.8855 33.4879 16.7365 33.4879 16.5811C33.4879 16.4257 33.4262 16.2766 33.3163 16.1667C33.2064 16.0569 33.0574 15.9951 32.902 15.9951H28.8184C28.663 15.9951 28.5139 16.0569 28.404 16.1667C28.2942 16.2766 28.2324 16.4257 28.2324 16.5811C28.2324 16.7365 28.2942 16.8855 28.404 16.9954C28.5139 17.1053 28.663 17.167 28.8184 17.167Z" fill="#19B385"/>
<path d="M28.8184 13.9072H32.902C33.0574 13.9072 33.2064 13.8455 33.3163 13.7356C33.4262 13.6257 33.4879 13.4767 33.4879 13.3213C33.4879 13.1659 33.4262 13.0169 33.3163 12.907C33.2064 12.7971 33.0574 12.7354 32.902 12.7354H28.8184C28.663 12.7354 28.5139 12.7971 28.404 12.907C28.2942 13.0169 28.2324 13.1659 28.2324 13.3213C28.2324 13.4767 28.2942 13.6257 28.404 13.7356C28.5139 13.8455 28.663 13.9072 28.8184 13.9072Z" fill="#19B385"/>
<path d="M17.6553 11.5188H23.9889C24.1443 11.5188 24.2933 11.4571 24.4032 11.3472C24.5131 11.2373 24.5748 11.0883 24.5748 10.9329C24.5748 10.7775 24.5131 10.6284 24.4032 10.5185C24.2933 10.4087 24.1443 10.3469 23.9889 10.3469H17.6553C17.4999 10.3469 17.3508 10.4087 17.241 10.5185C17.1311 10.6284 17.0693 10.7775 17.0693 10.9329C17.0693 11.0883 17.1311 11.2373 17.241 11.3472C17.3508 11.4571 17.4999 11.5188 17.6553 11.5188Z" fill="#19B385"/>
<path d="M37.0563 28.8833H39.0049C39.1603 28.8833 39.3093 28.8216 39.4192 28.7117C39.5291 28.6018 39.5908 28.4528 39.5908 28.2974C39.5908 28.142 39.5291 27.9929 39.4192 27.883C39.3093 27.7732 39.1603 27.7114 39.0049 27.7114H37.0563C36.9009 27.7114 36.7519 27.7732 36.642 27.883C36.5321 27.9929 36.4704 28.142 36.4704 28.2974C36.4704 28.4528 36.5321 28.6018 36.642 28.7117C36.7519 28.8216 36.9009 28.8833 37.0563 28.8833Z" fill="#19B385"/>
<path d="M37.0563 26.6838H39.0049C39.1603 26.6838 39.3093 26.6221 39.4192 26.5122C39.5291 26.4023 39.5908 26.2533 39.5908 26.0979C39.5908 25.9425 39.5291 25.7935 39.4192 25.6836C39.3093 25.5737 39.1603 25.512 39.0049 25.512H37.0563C36.9009 25.512 36.7519 25.5737 36.642 25.6836C36.5321 25.7935 36.4704 25.9425 36.4704 26.0979C36.4704 26.2533 36.5321 26.4023 36.642 26.5122C36.7519 26.6221 36.9009 26.6838 37.0563 26.6838Z" fill="#19B385"/>
<path d="M37.0563 24.4841H39.0049C39.1603 24.4841 39.3093 24.4224 39.4192 24.3125C39.5291 24.2026 39.5908 24.0536 39.5908 23.8982C39.5908 23.7428 39.5291 23.5938 39.4192 23.4839C39.3093 23.374 39.1603 23.3123 39.0049 23.3123H37.0563C36.9009 23.3123 36.7519 23.374 36.642 23.4839C36.5321 23.5938 36.4704 23.7428 36.4704 23.8982C36.4704 24.0536 36.5321 24.2026 36.642 24.3125C36.7519 24.4224 36.9009 24.4841 37.0563 24.4841Z" fill="#19B385"/>
<path d="M9.19122 21.1687H12.6343C12.7897 21.1687 12.9387 21.107 13.0486 20.9971C13.1585 20.8872 13.2202 20.7382 13.2202 20.5828C13.2202 20.4274 13.1585 20.2783 13.0486 20.1684C12.9387 20.0586 12.7897 19.9968 12.6343 19.9968H9.19122C9.03582 19.9968 8.88679 20.0586 8.7769 20.1684C8.66702 20.2783 8.60529 20.4274 8.60529 20.5828C8.60529 20.7382 8.66702 20.8872 8.7769 20.9971C8.88679 21.107 9.03582 21.1687 9.19122 21.1687Z" fill="#19B385"/>
<path d="M9.19122 23.4004H12.6343C12.7897 23.4004 12.9387 23.3387 13.0486 23.2288C13.1585 23.1189 13.2202 22.9699 13.2202 22.8145C13.2202 22.6591 13.1585 22.51 13.0486 22.4001C12.9387 22.2902 12.7897 22.2285 12.6343 22.2285H9.19122C9.03582 22.2285 8.88679 22.2902 8.7769 22.4001C8.66702 22.51 8.60529 22.6591 8.60529 22.8145C8.60529 22.9699 8.66702 23.1189 8.7769 23.2288C8.88679 23.3387 9.03582 23.4004 9.19122 23.4004Z" fill="#19B385"/>
<path d="M9.19122 25.6321H12.6343C12.7897 25.6321 12.9387 25.5704 13.0486 25.4605C13.1585 25.3506 13.2202 25.2016 13.2202 25.0462C13.2202 24.8907 13.1585 24.7417 13.0486 24.6318C12.9387 24.5219 12.7897 24.4602 12.6343 24.4602H9.19122C9.03582 24.4602 8.88679 24.5219 8.7769 24.6318C8.66702 24.7417 8.60529 24.8907 8.60529 25.0462C8.60529 25.2016 8.66702 25.3506 8.7769 25.4605C8.88679 25.5704 9.03582 25.6321 9.19122 25.6321Z" fill="#19B385"/>
<path d="M8.41394 13.4285V16.9366L6.63171 17.8137C6.53353 17.862 6.45085 17.9369 6.39303 18.0298C6.33521 18.1227 6.30457 18.2299 6.30457 18.3394V30.328C6.30457 40.6367 14.6913 49.0234 25 49.0234C35.3087 49.0234 43.6954 40.6367 43.6954 30.328C43.7031 27.4832 43.0548 24.6749 41.8009 22.1214V21.3155C41.8009 21.1601 41.7391 21.0111 41.6292 20.9012C41.5194 20.7913 41.3703 20.7296 41.2149 20.7296H40.23V19.7789C40.23 19.6235 40.1682 19.4745 40.0583 19.3646C39.9485 19.2547 39.7994 19.193 39.644 19.193H38.7215V18.0729C38.7215 17.9175 38.6597 17.7685 38.5499 17.6586C38.44 17.5487 38.2909 17.487 38.1355 17.487C37.9801 17.487 37.8311 17.5487 37.7212 17.6586C37.6113 17.7685 37.5496 17.9175 37.5496 18.0729V19.193H36.627C36.4716 19.193 36.3226 19.2547 36.2127 19.3646C36.1028 19.4745 36.0411 19.6235 36.0411 19.7789V20.7296H35.6422V10.0229C35.6422 9.86745 35.5804 9.71842 35.4706 9.60853C35.3607 9.49865 35.2116 9.43691 35.0562 9.43691H27.3972V7.19385C27.3972 7.03845 27.3355 6.88941 27.2256 6.77953C27.1157 6.66964 26.9667 6.60791 26.8113 6.60791H25.7097V3.90674C25.7097 3.75134 25.648 3.6023 25.5381 3.49242C25.4282 3.38253 25.2792 3.3208 25.1238 3.3208H21.1863V1.5625C21.1863 1.4071 21.1246 1.25806 21.0147 1.14818C20.9048 1.0383 20.7558 0.976562 20.6004 0.976562C20.445 0.976562 20.2959 1.0383 20.186 1.14818C20.0762 1.25806 20.0144 1.4071 20.0144 1.5625V3.3208H16.5202C16.3648 3.3208 16.2158 3.38253 16.1059 3.49242C15.996 3.6023 15.9343 3.75134 15.9343 3.90674V6.60791H14.8327C14.6773 6.60791 14.5283 6.66964 14.4184 6.77953C14.3085 6.88941 14.2468 7.03845 14.2468 7.19385V14.0664L13.0289 14.6657V13.4285C13.0289 13.2731 12.9672 13.1241 12.8573 13.0142C12.7474 12.9043 12.5983 12.8426 12.4429 12.8426H11.3074V12.3647C11.3074 12.2093 11.2457 12.0603 11.1358 11.9504C11.0259 11.8405 10.8769 11.7788 10.7215 11.7788C10.5661 11.7788 10.417 11.8405 10.3071 11.9504C10.1973 12.0603 10.1355 12.2093 10.1355 12.3647V12.8426H8.99988C8.84448 12.8426 8.69544 12.9043 8.58556 13.0142C8.47567 13.1241 8.41394 13.2731 8.41394 13.4285ZM11.3965 41.3607C8.98481 38.4004 7.61147 34.7303 7.48728 30.914H14.0852C14.1201 33.3939 14.5213 35.855 15.2761 38.2176C13.8479 39.0868 12.543 40.144 11.3965 41.3607ZM12.1689 42.2494C13.2074 41.1324 14.3875 40.156 15.6793 39.3451C17.0149 42.7777 19.1485 45.6118 21.9356 47.5833C18.1866 46.9144 14.7578 45.0417 12.1688 42.249L12.1689 42.2494ZM24.414 47.7165C20.8796 45.8992 18.2256 42.7556 16.7071 38.7485C19.0823 37.474 21.7199 36.7656 24.414 36.6788V47.7165ZM24.414 35.506C21.5905 35.5908 18.823 36.3157 16.3205 37.6262C15.6506 35.4503 15.2928 33.1904 15.2576 30.914H24.414V35.506ZM34.7424 30.914C34.7072 33.1833 34.3515 35.4364 33.6859 37.6063C31.1827 36.2938 28.4114 35.5743 25.5859 35.5031V30.914H34.7424ZM33.3002 38.7305C31.7829 42.7469 29.1259 45.8969 25.5859 47.717V36.6752C28.2825 36.7488 30.9244 37.4527 33.3002 38.7305ZM28.0644 47.5829C30.8563 45.608 32.9925 42.7678 34.3276 39.3271C35.6198 40.1415 36.7985 41.1233 37.8329 42.2471C35.2437 45.0407 31.8142 46.914 28.0644 47.5829ZM38.6056 41.3583C37.4629 40.1345 36.1592 39.0718 34.7302 38.1994C35.4809 35.8424 35.88 33.3877 35.9148 30.9143H42.5128C42.3886 34.7294 41.016 38.3984 38.6056 41.3583ZM42.5133 29.7421H41.8004V25.328C42.2269 26.7626 42.4665 28.2462 42.5133 29.7421ZM37.213 20.3648H39.0581V20.7296H37.213V20.3648ZM40.629 21.9015V29.7421H35.6422V21.9015H40.629ZM34.4703 10.6088V29.7421H27.3972V10.6088H34.4703ZM17.1061 4.49268H24.5378V6.60791H17.1061V4.49268ZM26.2254 7.77979V29.7421H15.4186V7.77979H26.2254ZM14.2468 15.3724V29.7421H7.47644V18.704L14.2468 15.3724ZM9.58582 14.0149H11.857V15.2429L9.58582 16.36V14.0149Z" fill="#19B385"/>
</svg>
